<mxfile host="app.diagrams.net" modified="2021-05-16T09:44:06.063Z" agent="5.0 (X11; Linux x86_64) AppleWebKit/537.36 (KHTML, like Gecko) Chrome/90.0.4430.93 Safari/537.36" etag="fIu0WcZah6f-mLZ__RYv" version="14.6.13" type="github">
  <diagram name="Page-1" id="9361dd3d-8414-5efd-6122-117bd74ce7a7">
    <mxGraphModel dx="1673" dy="1342" grid="1" gridSize="10" guides="1" tooltips="1" connect="1" arrows="1" fold="1" page="0" pageScale="1.5" pageWidth="826" pageHeight="1169" background="#ffffff" math="0" shadow="0">
      <root>
        <mxCell id="0" />
        <mxCell id="1" parent="0" />
        <mxCell id="D4KdyzOV2d330JZ_cZzw-89" value="" style="shape=umlLifeline;participant=umlActor;perimeter=lifelinePerimeter;whiteSpace=wrap;html=1;container=1;collapsible=0;recursiveResize=0;verticalAlign=top;spacingTop=36;outlineConnect=0;" vertex="1" parent="1">
          <mxGeometry x="150" y="-280" width="20" height="600" as="geometry" />
        </mxCell>
        <mxCell id="D4KdyzOV2d330JZ_cZzw-92" value="" style="html=1;points=[];perimeter=orthogonalPerimeter;" vertex="1" parent="D4KdyzOV2d330JZ_cZzw-89">
          <mxGeometry x="5" y="40" width="10" height="550" as="geometry" />
        </mxCell>
        <mxCell id="D4KdyzOV2d330JZ_cZzw-90" value="Система" style="shape=umlLifeline;perimeter=lifelinePerimeter;whiteSpace=wrap;html=1;container=1;collapsible=0;recursiveResize=0;outlineConnect=0;" vertex="1" parent="1">
          <mxGeometry x="510" y="-280" width="100" height="600" as="geometry" />
        </mxCell>
        <mxCell id="D4KdyzOV2d330JZ_cZzw-91" value="ОС компьютера" style="shape=umlLifeline;perimeter=lifelinePerimeter;whiteSpace=wrap;html=1;container=1;collapsible=0;recursiveResize=0;outlineConnect=0;" vertex="1" parent="1">
          <mxGeometry x="950" y="-280" width="100" height="600" as="geometry" />
        </mxCell>
        <mxCell id="D4KdyzOV2d330JZ_cZzw-93" value="" style="html=1;points=[];perimeter=orthogonalPerimeter;" vertex="1" parent="1">
          <mxGeometry x="555" y="-230" width="10" height="540" as="geometry" />
        </mxCell>
        <mxCell id="D4KdyzOV2d330JZ_cZzw-94" value="Открыть программу" style="html=1;verticalAlign=bottom;endArrow=block;entryX=0;entryY=0;exitX=1.139;exitY=0.019;exitDx=0;exitDy=0;exitPerimeter=0;" edge="1" target="D4KdyzOV2d330JZ_cZzw-93" parent="1" source="D4KdyzOV2d330JZ_cZzw-92">
          <mxGeometry relative="1" as="geometry">
            <mxPoint x="170" y="-230" as="sourcePoint" />
          </mxGeometry>
        </mxCell>
        <mxCell id="D4KdyzOV2d330JZ_cZzw-95" value="Окно программы" style="html=1;verticalAlign=bottom;endArrow=open;dashed=1;endSize=8;entryX=1.133;entryY=0.044;entryDx=0;entryDy=0;entryPerimeter=0;" edge="1" parent="1" target="D4KdyzOV2d330JZ_cZzw-92">
          <mxGeometry relative="1" as="geometry">
            <mxPoint x="240" y="-130" as="targetPoint" />
            <mxPoint x="553" y="-216" as="sourcePoint" />
          </mxGeometry>
        </mxCell>
        <mxCell id="D4KdyzOV2d330JZ_cZzw-96" value="" style="html=1;points=[];perimeter=orthogonalPerimeter;" vertex="1" parent="1">
          <mxGeometry x="995" y="-210" width="10" height="110" as="geometry" />
        </mxCell>
        <mxCell id="D4KdyzOV2d330JZ_cZzw-97" value="Загрузить 3D модели" style="html=1;verticalAlign=bottom;endArrow=block;entryX=0;entryY=0;exitX=1.167;exitY=0.049;exitDx=0;exitDy=0;exitPerimeter=0;" edge="1" parent="1">
          <mxGeometry relative="1" as="geometry">
            <mxPoint x="166.67000000000007" y="-189.36" as="sourcePoint" />
            <mxPoint x="555" y="-190.63" as="targetPoint" />
          </mxGeometry>
        </mxCell>
        <mxCell id="D4KdyzOV2d330JZ_cZzw-98" value="Открыть диалоговое окно выбора файла" style="html=1;verticalAlign=bottom;endArrow=block;exitX=1.167;exitY=0.049;exitDx=0;exitDy=0;exitPerimeter=0;" edge="1" parent="1">
          <mxGeometry relative="1" as="geometry">
            <mxPoint x="565" y="-179.36" as="sourcePoint" />
            <mxPoint x="996" y="-179" as="targetPoint" />
          </mxGeometry>
        </mxCell>
        <mxCell id="D4KdyzOV2d330JZ_cZzw-99" value="Диалоговое окно выбора файлов" style="html=1;verticalAlign=bottom;endArrow=open;dashed=1;endSize=8;" edge="1" parent="1" target="D4KdyzOV2d330JZ_cZzw-92">
          <mxGeometry x="-0.1928" relative="1" as="geometry">
            <mxPoint x="995" y="-160" as="sourcePoint" />
            <mxPoint x="170" y="-160" as="targetPoint" />
            <mxPoint as="offset" />
          </mxGeometry>
        </mxCell>
        <mxCell id="D4KdyzOV2d330JZ_cZzw-101" value="Выбрать файл" style="html=1;verticalAlign=bottom;endArrow=block;exitX=1.167;exitY=0.049;exitDx=0;exitDy=0;exitPerimeter=0;" edge="1" parent="1" target="D4KdyzOV2d330JZ_cZzw-96">
          <mxGeometry x="0.1452" relative="1" as="geometry">
            <mxPoint x="166.67000000000007" y="-138.73000000000002" as="sourcePoint" />
            <mxPoint x="555" y="-139.9999999999999" as="targetPoint" />
            <mxPoint as="offset" />
          </mxGeometry>
        </mxCell>
        <mxCell id="D4KdyzOV2d330JZ_cZzw-102" value="Вернуть пусть к файлу" style="html=1;verticalAlign=bottom;endArrow=open;dashed=1;endSize=8;" edge="1" parent="1" target="D4KdyzOV2d330JZ_cZzw-90">
          <mxGeometry x="0.0352" y="-6" relative="1" as="geometry">
            <mxPoint x="990" y="-110" as="sourcePoint" />
            <mxPoint x="910" y="-110" as="targetPoint" />
            <mxPoint as="offset" />
          </mxGeometry>
        </mxCell>
        <mxCell id="D4KdyzOV2d330JZ_cZzw-103" value="Добавить камеру" style="html=1;verticalAlign=bottom;endArrow=block;entryX=0;entryY=0;exitX=1.167;exitY=0.049;exitDx=0;exitDy=0;exitPerimeter=0;" edge="1" parent="1">
          <mxGeometry relative="1" as="geometry">
            <mxPoint x="166.67000000000007" y="-88.73000000000002" as="sourcePoint" />
            <mxPoint x="555" y="-90" as="targetPoint" />
          </mxGeometry>
        </mxCell>
        <mxCell id="D4KdyzOV2d330JZ_cZzw-105" value="отрендерить &lt;br&gt;вид от камеры" style="edgeStyle=orthogonalEdgeStyle;html=1;align=left;spacingLeft=2;endArrow=block;rounded=0;entryX=0.914;entryY=0.302;entryDx=0;entryDy=0;entryPerimeter=0;" edge="1" target="D4KdyzOV2d330JZ_cZzw-93" parent="1">
          <mxGeometry relative="1" as="geometry">
            <mxPoint x="565" y="-90" as="sourcePoint" />
            <Array as="points">
              <mxPoint x="595" y="-90" />
              <mxPoint x="595" y="-67" />
            </Array>
            <mxPoint x="575" y="-70" as="targetPoint" />
          </mxGeometry>
        </mxCell>
        <mxCell id="D4KdyzOV2d330JZ_cZzw-106" value="Отрендереное изображение" style="html=1;verticalAlign=bottom;endArrow=open;dashed=1;endSize=8;entryX=1.167;entryY=0.363;entryDx=0;entryDy=0;entryPerimeter=0;" edge="1" parent="1" target="D4KdyzOV2d330JZ_cZzw-92">
          <mxGeometry relative="1" as="geometry">
            <mxPoint x="555" y="-40" as="sourcePoint" />
            <mxPoint x="475" y="-40" as="targetPoint" />
          </mxGeometry>
        </mxCell>
        <mxCell id="D4KdyzOV2d330JZ_cZzw-107" value="Добавить источники света" style="html=1;verticalAlign=bottom;endArrow=block;entryX=0;entryY=0;exitX=1.167;exitY=0.049;exitDx=0;exitDy=0;exitPerimeter=0;" edge="1" parent="1">
          <mxGeometry relative="1" as="geometry">
            <mxPoint x="166.67000000000007" y="1.2700000000000955" as="sourcePoint" />
            <mxPoint x="555" as="targetPoint" />
          </mxGeometry>
        </mxCell>
        <mxCell id="D4KdyzOV2d330JZ_cZzw-108" value="отрендерить &lt;br&gt;вид от активной&lt;br&gt;&amp;nbsp;камеры" style="edgeStyle=orthogonalEdgeStyle;html=1;align=left;spacingLeft=2;endArrow=block;rounded=0;entryX=0.914;entryY=0.302;entryDx=0;entryDy=0;entryPerimeter=0;" edge="1" parent="1">
          <mxGeometry relative="1" as="geometry">
            <mxPoint x="565.86" as="sourcePoint" />
            <Array as="points">
              <mxPoint x="595.86" />
              <mxPoint x="595.86" y="23" />
            </Array>
            <mxPoint x="564.9999999999999" y="23.079999999999927" as="targetPoint" />
          </mxGeometry>
        </mxCell>
        <mxCell id="D4KdyzOV2d330JZ_cZzw-109" value="Сохранить сцену в 3D файл" style="html=1;verticalAlign=bottom;endArrow=block;entryX=0;entryY=0;exitX=1.167;exitY=0.049;exitDx=0;exitDy=0;exitPerimeter=0;" edge="1" parent="1">
          <mxGeometry relative="1" as="geometry">
            <mxPoint x="166.67000000000007" y="81.26999999999998" as="sourcePoint" />
            <mxPoint x="555" y="80" as="targetPoint" />
          </mxGeometry>
        </mxCell>
        <mxCell id="D4KdyzOV2d330JZ_cZzw-110" value="" style="html=1;points=[];perimeter=orthogonalPerimeter;" vertex="1" parent="1">
          <mxGeometry x="995" y="90" width="10" height="60" as="geometry" />
        </mxCell>
        <mxCell id="D4KdyzOV2d330JZ_cZzw-111" value="Открыть диалоговое окно выбора места сохранения файла" style="html=1;verticalAlign=bottom;endArrow=block;exitX=1.167;exitY=0.049;exitDx=0;exitDy=0;exitPerimeter=0;" edge="1" parent="1">
          <mxGeometry relative="1" as="geometry">
            <mxPoint x="564" y="90" as="sourcePoint" />
            <mxPoint x="995" y="90.36000000000001" as="targetPoint" />
          </mxGeometry>
        </mxCell>
        <mxCell id="D4KdyzOV2d330JZ_cZzw-112" value="Диалоговое окно" style="html=1;verticalAlign=bottom;endArrow=open;dashed=1;endSize=8;" edge="1" parent="1">
          <mxGeometry x="-0.1928" relative="1" as="geometry">
            <mxPoint x="995" y="120" as="sourcePoint" />
            <mxPoint x="165" y="120" as="targetPoint" />
            <mxPoint as="offset" />
          </mxGeometry>
        </mxCell>
        <mxCell id="D4KdyzOV2d330JZ_cZzw-113" value="Выбрать место и сохранить" style="html=1;verticalAlign=bottom;endArrow=block;entryX=-0.139;entryY=0.982;exitX=1.167;exitY=0.049;exitDx=0;exitDy=0;exitPerimeter=0;entryDx=0;entryDy=0;entryPerimeter=0;" edge="1" parent="1" target="D4KdyzOV2d330JZ_cZzw-110">
          <mxGeometry x="0.1429" relative="1" as="geometry">
            <mxPoint x="166.67000000000007" y="151.26999999999998" as="sourcePoint" />
            <mxPoint x="555" y="150" as="targetPoint" />
            <mxPoint as="offset" />
          </mxGeometry>
        </mxCell>
        <mxCell id="D4KdyzOV2d330JZ_cZzw-114" value="Сохранить сцену в BMP файл" style="html=1;verticalAlign=bottom;endArrow=block;entryX=0;entryY=0;exitX=1.167;exitY=0.049;exitDx=0;exitDy=0;exitPerimeter=0;" edge="1" parent="1">
          <mxGeometry relative="1" as="geometry">
            <mxPoint x="166.67000000000007" y="201.26999999999998" as="sourcePoint" />
            <mxPoint x="555" y="200" as="targetPoint" />
          </mxGeometry>
        </mxCell>
        <mxCell id="D4KdyzOV2d330JZ_cZzw-115" value="" style="html=1;points=[];perimeter=orthogonalPerimeter;" vertex="1" parent="1">
          <mxGeometry x="995" y="210" width="10" height="60" as="geometry" />
        </mxCell>
        <mxCell id="D4KdyzOV2d330JZ_cZzw-116" value="Открыть диалоговое окно выбора места сохранения файла" style="html=1;verticalAlign=bottom;endArrow=block;exitX=1.167;exitY=0.049;exitDx=0;exitDy=0;exitPerimeter=0;" edge="1" parent="1">
          <mxGeometry relative="1" as="geometry">
            <mxPoint x="563.9999999999998" y="210" as="sourcePoint" />
            <mxPoint x="995" y="210.36000000000013" as="targetPoint" />
          </mxGeometry>
        </mxCell>
        <mxCell id="D4KdyzOV2d330JZ_cZzw-117" value="Диалоговое окно" style="html=1;verticalAlign=bottom;endArrow=open;dashed=1;endSize=8;" edge="1" parent="1">
          <mxGeometry x="-0.1928" relative="1" as="geometry">
            <mxPoint x="995" y="240" as="sourcePoint" />
            <mxPoint x="165" y="240" as="targetPoint" />
            <mxPoint as="offset" />
          </mxGeometry>
        </mxCell>
        <mxCell id="D4KdyzOV2d330JZ_cZzw-118" value="Выбрать место и сохранить" style="html=1;verticalAlign=bottom;endArrow=block;entryX=-0.139;entryY=0.982;exitX=1.167;exitY=0.049;exitDx=0;exitDy=0;exitPerimeter=0;entryDx=0;entryDy=0;entryPerimeter=0;" edge="1" parent="1" target="D4KdyzOV2d330JZ_cZzw-115">
          <mxGeometry x="0.1429" relative="1" as="geometry">
            <mxPoint x="166.67000000000007" y="271.27" as="sourcePoint" />
            <mxPoint x="555" y="270" as="targetPoint" />
            <mxPoint as="offset" />
          </mxGeometry>
        </mxCell>
      </root>
    </mxGraphModel>
  </diagram>
</mxfile>
